<svg width="24" height="24" viewBox="0 0 24 24" fill="none" xmlns="http://www.w3.org/2000/svg">
<path d="M12 0C5.37653 0 0 5.37653 0 12C0 18.6235 5.37653 24 12 24C18.6235 24 24 18.6235 24 12C24 5.37653 18.6235 0 12 0ZM12 0.666667C18.2632 0.666667 23.3333 5.73682 23.3333 12C23.3333 18.2632 18.2632 23.3333 12 23.3333C5.73682 23.3333 0.666667 18.2632 0.666667 12C0.666667 5.73682 5.73682 0.666667 12 0.666667ZM12 1.66667C6.29493 1.66667 1.66667 6.29493 1.66667 12C1.66667 17.7051 6.29493 22.3333 12 22.3333C17.7051 22.3333 22.3333 17.7051 22.3333 12C22.3333 8.96813 21.0264 6.23894 18.9453 4.34896C18.9292 4.3335 18.9102 4.32143 18.8894 4.31345C18.8686 4.30547 18.8464 4.30175 18.8241 4.3025C18.8018 4.30326 18.7799 4.30848 18.7597 4.31785C18.7395 4.32722 18.7213 4.34056 18.7063 4.35707C18.6914 4.37357 18.6798 4.39292 18.6725 4.41396C18.6651 4.435 18.662 4.45731 18.6634 4.47956C18.6648 4.50181 18.6707 4.52355 18.6806 4.5435C18.6906 4.56345 18.7044 4.5812 18.7214 4.5957C20.7356 6.42506 22 9.06387 22 12C22 17.5249 17.5249 22 12 22C6.47507 22 2 17.5249 2 12C2 6.47507 6.47507 2 12 2C13.2102 2 14.3694 2.21531 15.4427 2.60872C15.4633 2.61625 15.4851 2.61965 15.507 2.61874C15.5289 2.61782 15.5504 2.6126 15.5702 2.60339C15.5901 2.59417 15.6079 2.58113 15.6227 2.56501C15.6376 2.54889 15.6491 2.53001 15.6566 2.50945C15.6641 2.48888 15.6675 2.46704 15.6666 2.44516C15.6657 2.42328 15.6605 2.4018 15.6512 2.38194C15.642 2.36208 15.629 2.34423 15.6129 2.32941C15.5967 2.31459 15.5779 2.30309 15.5573 2.29557C14.448 1.88898 13.2498 1.66667 12 1.66667ZM16.4935 2.71354C16.456 2.71446 16.42 2.72797 16.3912 2.75189C16.3623 2.7758 16.3424 2.80873 16.3346 2.84536C16.3268 2.882 16.3315 2.9202 16.348 2.9538C16.3646 2.98741 16.392 3.01446 16.4258 3.0306C16.649 3.14108 16.8682 3.25978 17.082 3.38607C17.1009 3.39773 17.1219 3.40551 17.1438 3.40896C17.1657 3.4124 17.1881 3.41143 17.2097 3.40611C17.2312 3.40079 17.2514 3.39122 17.2692 3.37797C17.287 3.36472 17.302 3.34805 17.3133 3.32894C17.3245 3.30983 17.3319 3.28867 17.3349 3.26669C17.3378 3.2447 17.3364 3.22235 17.3306 3.20093C17.3249 3.17951 17.3149 3.15945 17.3012 3.14194C17.2876 3.12444 17.2706 3.10982 17.2513 3.09896C17.0305 2.96858 16.805 2.84596 16.5742 2.73177C16.5493 2.719 16.5215 2.71273 16.4935 2.71354ZM17.8359 3.50391C17.8303 3.50384 17.8246 3.50405 17.819 3.50456C17.7845 3.50713 17.7517 3.52036 17.7251 3.54242C17.6984 3.56448 17.6793 3.59428 17.6704 3.62768C17.6614 3.66109 17.6631 3.69645 17.6752 3.72886C17.6872 3.76128 17.709 3.78914 17.7376 3.80859C17.8485 3.88635 17.9577 3.96667 18.0651 4.04883C18.0825 4.06217 18.1024 4.07195 18.1235 4.07761C18.1447 4.08328 18.1668 4.08472 18.1885 4.08185C18.2103 4.07898 18.2312 4.07185 18.2502 4.06088C18.2692 4.04991 18.2858 4.03531 18.2992 4.01791C18.3125 4.00051 18.3223 3.98066 18.3279 3.95948C18.3336 3.9383 18.335 3.91621 18.3322 3.89448C18.3293 3.87274 18.3222 3.85179 18.3112 3.83281C18.3002 3.81382 18.2856 3.79719 18.2682 3.78385C18.1569 3.69868 18.0435 3.61605 17.929 3.53581C17.9019 3.51605 17.8695 3.50493 17.8359 3.50391ZM16.7917 6.66667C16.492 6.66667 16.2005 6.8044 16.1999 6.80469L5.25 11.2376C5.23419 11.2429 5.11336 11.2839 4.98047 11.3724C4.83869 11.4668 4.66667 11.6304 4.66667 11.8757C4.66667 12.1377 4.82691 12.3217 4.9681 12.4232C5.10929 12.5247 5.25 12.5658 5.25 12.5658C5.2513 12.566 5.2526 12.5662 5.25391 12.5664L7.78776 13.2539C7.814 13.3273 8.10012 14.1274 8.41537 15.0085C8.58006 15.4688 8.74573 15.9306 8.87175 16.2819C8.93475 16.4576 8.9878 16.6055 9.02604 16.7116C9.04516 16.7646 9.06052 16.8074 9.07162 16.8379C9.08271 16.8684 9.08481 16.8762 9.0931 16.8965C9.16021 17.0607 9.2209 17.1557 9.2793 17.2174C9.30849 17.2483 9.33807 17.2705 9.36654 17.2858C9.37352 17.2896 9.38004 17.2914 9.38672 17.2943C9.3878 17.2949 9.38888 17.2956 9.38997 17.2962C9.39108 17.2967 9.39213 17.297 9.39323 17.2975C9.39791 17.2994 9.40292 17.302 9.40755 17.3034C9.41317 17.3051 9.41642 17.3053 9.42318 17.3066C9.47685 17.3259 9.53106 17.3346 9.58073 17.3314C9.74222 17.3248 9.85547 17.2357 9.85547 17.2357C9.85907 17.2328 9.86254 17.2297 9.86589 17.2266L11.5169 15.7012L14.013 17.8132C14.013 17.8132 14.0744 17.8682 14.1686 17.9128C14.2629 17.9573 14.4006 18 14.5755 18C14.8999 18 15.1191 17.8549 15.235 17.7077C15.3509 17.5605 15.3783 17.4049 15.3783 17.4049V17.4076C15.3783 17.4076 15.8603 14.9089 16.3444 12.3991C16.5865 11.1442 16.829 9.88653 17.0117 8.93685C17.1031 8.46201 17.1797 8.0639 17.2337 7.7819C17.2607 7.6409 17.282 7.52885 17.2969 7.45052C17.3043 7.41136 17.3104 7.3806 17.3145 7.35872C17.3185 7.33684 17.319 7.3383 17.3223 7.31445C17.3287 7.2681 17.3333 7.21802 17.3333 7.16667C17.3333 7.01806 17.2675 6.88191 17.1647 6.79492C17.0619 6.70793 16.9292 6.66667 16.7917 6.66667ZM16.7917 7C16.8625 7 16.9173 7.02123 16.9499 7.04883C16.9825 7.07642 17 7.10694 17 7.16667C17 7.19598 16.9971 7.23324 16.9922 7.26888C16.9947 7.25065 16.9903 7.27696 16.9863 7.29818C16.9824 7.3194 16.9768 7.34969 16.9694 7.38867C16.9546 7.46663 16.9332 7.5785 16.9062 7.7194C16.8523 8.0012 16.7762 8.39891 16.6849 8.8737C16.5022 9.82327 16.2596 11.081 16.0176 12.3359C15.5335 14.8457 15.0508 17.3444 15.0508 17.3444C15.0506 17.3453 15.0503 17.3461 15.0501 17.347C15.0501 17.347 15.0375 17.4198 14.9733 17.5013C14.9092 17.5828 14.8088 17.6667 14.5755 17.6667C14.4538 17.6667 14.3671 17.6384 14.3112 17.612C14.2553 17.5855 14.2402 17.5697 14.2402 17.5697C14.2383 17.5677 14.2364 17.5657 14.2344 17.5638L10.2064 14.1549L15.1803 9.42448L15.1673 9.43555C15.2768 9.35125 15.3333 9.22268 15.3333 9.09505V9.0944C15.3328 9.0053 15.3046 8.91406 15.2467 8.83724C15.1658 8.72842 15.0398 8.66741 14.9128 8.66667H14.9121C14.8203 8.66623 14.728 8.69716 14.6517 8.75586L14.6654 8.74609L7.91536 12.9238L7.99935 12.9714C7.98704 12.9645 7.97392 12.9593 7.96029 12.9557L5.34245 12.2454L5.34115 12.2448C5.33811 12.2439 5.25201 12.2171 5.16276 12.153C5.07197 12.0877 5 12.0066 5 11.8757C5 11.7926 5.06748 11.7149 5.16536 11.6497C5.26325 11.5846 5.36393 11.5508 5.36393 11.5508C5.36767 11.5496 5.37136 11.5483 5.375 11.5469L16.3294 7.11198C16.331 7.11135 16.3325 7.1107 16.334 7.11003C16.334 7.11003 16.605 7 16.7917 7ZM14.9108 9C14.9362 9.00011 14.9602 9.01011 14.9798 9.03646L14.9805 9.03711C14.9932 9.05387 14.9997 9.07421 15 9.0957C14.9998 9.12518 14.9872 9.15363 14.9635 9.17188C14.959 9.17534 14.9547 9.17903 14.9505 9.18294L9.8418 14.0417C9.81542 14.0669 9.79803 14.1 9.79232 14.1361H9.79102L9.36914 16.681C9.36004 16.6558 9.35171 16.6337 9.33919 16.599C9.30106 16.4931 9.24787 16.3448 9.1849 16.1693C9.05894 15.8181 8.89385 15.3561 8.72917 14.8958C8.42249 14.0387 8.15891 13.3025 8.11849 13.1895L14.8411 9.0293C14.8459 9.02627 14.8504 9.02301 14.8548 9.01953C14.8737 9.00503 14.8929 8.99989 14.9108 9ZM10.0723 14.4785L11.2604 15.4844L9.66081 16.9622L10.0723 14.4785Z" fill="#272727"/>
</svg>
