<svg width="52" height="52" viewBox="0 0 52 52" fill="none" xmlns="http://www.w3.org/2000/svg">
<path d="M26.0001 0.0800781C11.7074 0.0800781 0.0800781 11.7074 0.0800781 26.0001C0.0800781 40.2928 11.7074 51.9201 26.0001 51.9201C40.2928 51.9201 51.9201 40.2928 51.9201 26.0001C51.9201 11.7074 40.2928 0.0800781 26.0001 0.0800781ZM26.0001 1.52008C39.4986 1.52008 50.4801 12.5015 50.4801 26.0001C50.4801 39.4986 39.4986 50.4801 26.0001 50.4801C12.5015 50.4801 1.52008 39.4986 1.52008 26.0001C1.52008 12.5015 12.5015 1.52008 26.0001 1.52008ZM26.0001 3.68008C13.6924 3.68008 3.68008 13.6931 3.68008 26.0001C3.68008 38.307 13.6924 48.3201 26.0001 48.3201C38.3078 48.3201 48.3201 38.307 48.3201 26.0001C48.3201 19.7217 45.6532 13.6988 41.002 9.47383C40.8558 9.34063 40.6289 9.35085 40.4943 9.49773C40.3604 9.64533 40.3706 9.87288 40.5182 10.0068C45.0189 14.095 47.6001 19.924 47.6001 26.0001C47.6001 37.9103 37.9103 47.6001 26.0001 47.6001C14.0898 47.6001 4.40008 37.9103 4.40008 26.0001C4.40008 14.0898 14.0898 4.40008 26.0001 4.40008C28.5568 4.40008 31.0582 4.8416 33.4363 5.71352C33.6228 5.78264 33.8306 5.68697 33.899 5.49977C33.9674 5.31257 33.871 5.10692 33.6838 5.03852C31.2265 4.1378 28.641 3.68008 26.0001 3.68008ZM35.7412 5.94414C35.6014 5.93594 35.4631 6.00937 35.3966 6.14383C35.3088 6.32239 35.3819 6.53761 35.5598 6.62617C36.0407 6.86377 36.5165 7.12114 36.9759 7.39258C37.0335 7.42714 37.0974 7.4432 37.1601 7.4432C37.2832 7.4432 37.4025 7.38046 37.4695 7.26742C37.5703 7.09606 37.5135 6.87535 37.3429 6.77383C36.8684 6.49231 36.3751 6.22622 35.879 5.9807C35.8349 5.9591 35.7877 5.94687 35.7412 5.94414ZM38.5382 7.65836C38.4475 7.67411 38.363 7.72394 38.3062 7.80602C38.1917 7.96874 38.2306 8.19357 38.3934 8.30805C38.6331 8.47653 38.8689 8.64771 39.1007 8.82555C39.1662 8.87523 39.2438 8.90008 39.3201 8.90008C39.4281 8.90008 39.5357 8.85161 39.607 8.75945C39.7272 8.60105 39.6978 8.37485 39.5395 8.25461C39.299 8.07101 39.0552 7.89094 38.8068 7.71742C38.7254 7.6609 38.6289 7.64261 38.5382 7.65836ZM12.3566 17.3601C11.8767 17.3601 11.5067 17.4862 11.2795 17.7426C11.0522 17.9989 11.0137 18.3159 11.0137 18.5751C11.0137 18.8411 11.074 19.2586 11.2176 19.8674C11.3612 20.4762 11.5896 21.2571 11.932 22.168C12.6166 23.99 13.7578 26.332 15.5868 28.8351C18.259 32.4912 21.7919 34.6401 25.0129 34.6401C25.9697 34.6401 26.5492 34.5384 26.9451 34.2407C27.341 33.943 27.4148 33.471 27.4148 33.0721V29.7927V29.7913C27.4157 29.378 27.4784 29.1395 27.5315 29.0587C27.5847 28.9777 27.6171 28.9532 27.8479 28.9532C27.9313 28.9532 28.1958 29.0176 28.6368 29.3455C29.0778 29.6734 29.6916 30.2503 30.5085 31.2032C31.4518 32.3033 32.0045 33.1168 32.4885 33.6923C32.9725 34.2677 33.4674 34.6415 34.1338 34.6415H37.0237C37.4095 34.6415 37.7445 34.56 37.9869 34.3377C38.2294 34.1155 38.3224 33.7921 38.3315 33.463V33.4616C38.3362 33.2809 38.3104 33.0927 38.2584 32.8935L38.2555 32.8823L38.2513 32.8696C38.0011 32.1256 37.1404 30.5973 35.8888 29.084V29.0826C35.198 28.2482 34.4032 27.41 34.1395 27.0323L34.138 27.0309L34.1366 27.028C33.9515 26.7701 33.9241 26.656 33.9285 26.571C33.9331 26.4791 33.9985 26.3316 34.1549 26.0648L34.1577 26.0591C34.1567 26.0609 34.1581 26.0591 34.162 26.0521C34.1658 26.0461 34.1718 26.0374 34.1816 26.0226C34.2059 25.9862 34.2443 25.9298 34.2941 25.8566C34.3938 25.7102 34.5383 25.497 34.7146 25.2365C35.0672 24.7154 35.5451 24.0016 36.0351 23.2312C36.5251 22.4607 37.0273 21.6338 37.4343 20.8813C37.8381 20.1349 38.1461 19.4819 38.257 18.9576C38.321 18.7354 38.3184 18.5353 38.3118 18.3951C38.302 18.1594 38.2572 17.8852 38.0516 17.668C37.8462 17.451 37.5333 17.3601 37.1559 17.3601H34.266C33.8284 17.3601 33.4662 17.5027 33.2057 17.7187C32.9452 17.9346 32.7853 18.2079 32.6741 18.4584C32.6649 18.4773 30.8761 22.1366 28.8562 24.5179C28.5365 24.8528 28.2991 25.0544 28.1305 25.1577C27.977 25.2519 27.8875 25.272 27.7804 25.2759C27.773 25.2735 27.7689 25.2735 27.7579 25.266C27.7194 25.2398 27.6627 25.1893 27.6102 25.1226C27.5053 24.9891 27.4162 24.7968 27.4162 24.5643V18.8395C27.4162 18.4265 27.3773 18.0795 27.1813 17.7904C26.9853 17.5013 26.6248 17.3601 26.2476 17.3601H21.2526C20.9335 17.3601 20.6479 17.4994 20.4693 17.706C20.2907 17.9127 20.2091 18.171 20.2091 18.4274C20.2091 18.8996 20.4119 19.1971 20.5734 19.5637C20.7349 19.9303 20.9056 20.4288 20.9601 21.4241V25.4038C20.9601 25.7761 20.9541 25.8789 20.953 25.9663C20.8732 25.9496 20.66 25.8608 20.3737 25.5571C20.0633 25.2279 19.6993 24.7214 19.3246 24.0763C18.5752 22.7862 17.7754 20.9419 17.1351 18.7959L17.1337 18.7916L17.1323 18.7874C16.9854 18.3391 16.8331 17.9888 16.5627 17.7299C16.2924 17.4711 15.9191 17.3601 15.501 17.3601H12.3566ZM12.3566 18.0801H15.501C15.8123 18.0801 15.9425 18.1316 16.0649 18.2488C16.1873 18.366 16.3157 18.6047 16.4488 19.011C17.1032 21.2016 17.9172 23.0848 18.703 24.4377C19.0966 25.1152 19.4815 25.6607 19.8505 26.0521C20.2196 26.4435 20.5661 26.7201 21.0023 26.7201C21.0909 26.7201 21.1694 26.7339 21.3074 26.6934C21.4454 26.6528 21.6056 26.4777 21.6435 26.346C21.7193 26.0827 21.6801 25.8837 21.6801 25.4038V21.3946V21.3848C21.6216 20.3166 21.4172 19.6956 21.2315 19.274C21.0458 18.8524 20.9291 18.6918 20.9291 18.4274C20.9291 18.3296 20.9642 18.2358 21.0149 18.1771C21.0656 18.1184 21.1224 18.0801 21.2526 18.0801H26.2476C26.4873 18.0801 26.5314 18.1148 26.5851 18.194C26.6387 18.2731 26.6962 18.4863 26.6962 18.8395V24.5643C26.6962 24.9798 26.8527 25.3243 27.0435 25.567C27.1389 25.6883 27.2425 25.7865 27.3515 25.8609C27.4605 25.9352 27.5647 26.0001 27.7452 26.0001C27.9848 26.0001 28.2473 25.9303 28.5074 25.7709C28.7675 25.6114 29.0389 25.3712 29.3863 25.0059L29.3934 24.9988L29.399 24.9918C31.5259 22.4874 33.3266 18.7621 33.3266 18.7621L33.3295 18.7565L33.3323 18.7509C33.4177 18.5585 33.5249 18.3882 33.6641 18.2727C33.8034 18.1573 33.9735 18.0801 34.266 18.0801H37.1559C37.4257 18.0801 37.5036 18.1352 37.5299 18.163C37.5562 18.1909 37.585 18.2607 37.5918 18.4246V18.426C37.598 18.558 37.5981 18.6602 37.5665 18.7635L37.5623 18.7804L37.558 18.7959C37.4844 19.1533 37.1954 19.8115 36.8015 20.5396C36.4076 21.2677 35.9121 22.084 35.4276 22.8459C34.9431 23.6077 34.4688 24.315 34.1184 24.8329C33.9431 25.0918 33.7997 25.3042 33.6993 25.4516C33.6491 25.5254 33.6102 25.5818 33.5826 25.6232C33.5688 25.6439 33.5574 25.6607 33.5474 25.6766C33.5435 25.6828 33.5387 25.6911 33.5334 25.7005C33.5318 25.7034 33.5312 25.7038 33.5291 25.7076C33.5247 25.7156 33.508 25.7554 33.508 25.7554C33.508 25.7554 33.5041 25.7711 33.5024 25.7793C33.3597 26.0239 33.2244 26.248 33.2099 26.5345C33.1942 26.8379 33.324 27.1296 33.5516 27.4471V27.4485C33.9051 27.9536 34.6674 28.7381 35.3334 29.5424C36.5285 30.9875 37.3821 32.5574 37.5637 33.0904C37.5991 33.2307 37.6153 33.3498 37.6129 33.4434C37.6068 33.6608 37.5605 33.751 37.5004 33.8062C37.4403 33.8613 37.3088 33.9215 37.0237 33.9215H34.1338C33.7051 33.9215 33.4802 33.7518 33.0398 33.2282C32.5993 32.7046 32.0224 31.8625 31.0555 30.7349C30.2164 29.7561 29.5744 29.1447 29.0671 28.7676C28.5599 28.3904 28.1849 28.2332 27.8479 28.2332C27.489 28.2332 27.125 28.3661 26.9296 28.6635C26.7342 28.9609 26.6955 29.322 26.6948 29.7913V33.0721C26.6948 33.409 26.6742 33.5421 26.512 33.6641C26.3498 33.7861 25.9086 33.9201 25.0129 33.9201C22.1168 33.9201 18.7399 31.9298 16.1676 28.4104C14.3807 25.9649 13.2705 23.6805 12.607 21.9149C12.2752 21.0321 12.0553 20.2781 11.9193 19.7015C11.7833 19.1249 11.7337 18.7072 11.7337 18.5751C11.7337 18.3921 11.7645 18.2811 11.818 18.2207C11.8716 18.1603 11.9942 18.0801 12.3566 18.0801Z" fill="black"/>
</svg>
